<svg xmlns="http://www.w3.org/2000/svg" width="48" height="48" viewBox="0 0 48 48" fill="none">
  <path d="M23.9976 33.9844V19.9844M23.9976 19.9844L29.9976 25.9844M23.9976 19.9844L17.9976 25.9844" stroke="#667085" stroke-width="3" stroke-linecap="round" stroke-linejoin="round"/>
  <path d="M31.999 14H15.999M43.999 24C43.999 33.428 43.999 38.142 41.069 41.07C38.143 44 33.427 44 23.999 44C14.571 44 9.85702 44 6.92702 41.07C3.99902 38.144 3.99902 33.428 3.99902 24C3.99902 14.572 3.99902 9.858 6.92702 6.928C9.85902 4 14.571 4 23.999 4C33.427 4 38.141 4 41.069 6.928C43.017 8.876 43.669 11.614 43.889 16" stroke="#667085" stroke-width="3" stroke-linecap="round"/>
</svg>